<?xml version="1.0" standalone="no"?>
<svg xmlns:xlink="http://www.w3.org/1999/xlink" id="wave" style="transform:rotate(180deg); transition: 0.3s" viewBox="0 0 1440 100" version="1.1" xmlns="http://www.w3.org/2000/svg"><defs><linearGradient id="sw-gradient-0" x1="0" x2="0" y1="1" y2="0"><stop stop-color="rgba(202.954, 13.249, 13.249, 1)" offset="0%"/><stop stop-color="rgba(255, 234, 234, 1)" offset="100%"/></linearGradient></defs><path style="transform:translate(0, 0px); opacity:1" fill="url(#sw-gradient-0)" d="M0,50L40,51.7C80,53,160,57,240,55C320,53,400,47,480,45C560,43,640,47,720,50C800,53,880,57,960,48.3C1040,40,1120,20,1200,16.7C1280,13,1360,27,1440,28.3C1520,30,1600,20,1680,16.7C1760,13,1840,17,1920,20C2000,23,2080,27,2160,31.7C2240,37,2320,43,2400,41.7C2480,40,2560,30,2640,33.3C2720,37,2800,53,2880,55C2960,57,3040,43,3120,38.3C3200,33,3280,37,3360,43.3C3440,50,3520,60,3600,60C3680,60,3760,50,3840,43.3C3920,37,4000,33,4080,36.7C4160,40,4240,50,4320,55C4400,60,4480,60,4560,61.7C4640,63,4720,67,4800,63.3C4880,60,4960,50,5040,53.3C5120,57,5200,73,5280,73.3C5360,73,5440,57,5520,46.7C5600,37,5680,33,5720,31.7L5760,30L5760,100L5720,100C5680,100,5600,100,5520,100C5440,100,5360,100,5280,100C5200,100,5120,100,5040,100C4960,100,4880,100,4800,100C4720,100,4640,100,4560,100C4480,100,4400,100,4320,100C4240,100,4160,100,4080,100C4000,100,3920,100,3840,100C3760,100,3680,100,3600,100C3520,100,3440,100,3360,100C3280,100,3200,100,3120,100C3040,100,2960,100,2880,100C2800,100,2720,100,2640,100C2560,100,2480,100,2400,100C2320,100,2240,100,2160,100C2080,100,2000,100,1920,100C1840,100,1760,100,1680,100C1600,100,1520,100,1440,100C1360,100,1280,100,1200,100C1120,100,1040,100,960,100C880,100,800,100,720,100C640,100,560,100,480,100C400,100,320,100,240,100C160,100,80,100,40,100L0,100Z"/></svg>